<?xml version="1.0" standalone="no"?>
<!DOCTYPE svg PUBLIC "-//W3C//DTD SVG 20010904//EN"
 "http://www.w3.org/TR/2001/REC-SVG-20010904/DTD/svg10.dtd">
<svg version="1.0" xmlns="http://www.w3.org/2000/svg"
 width="347.000000pt" height="347.000000pt" viewBox="0 0 347.000000 347.000000"
 preserveAspectRatio="xMidYMid meet">

<g transform="translate(0.000000,347.000000) scale(0.100000,-0.100000)"
fill="#000000" stroke="none">
<path d="M1944 3295 c-357 -63 -563 -293 -457 -509 l27 -55 -18 -73 c-13 -56
-26 -83 -56 -118 -47 -53 -44 -67 5 -20 l35 34 0 -42 c0 -25 5 -42 11 -42 8 0
10 16 6 48 -4 31 1 75 15 128 19 79 21 82 61 100 90 41 196 189 212 298 13 86
83 116 285 124 207 7 351 -28 459 -111 109 -84 199 -184 238 -264 31 -66 37
-89 41 -167 10 -197 -75 -469 -211 -671 -59 -88 -184 -206 -279 -263 -134 -80
-221 -108 -476 -152 -125 -21 -242 -42 -259 -46 l-33 -7 0 80 c0 141 -2 137
98 152 104 14 269 68 361 116 172 91 337 251 415 403 l17 32 -981 0 -980 0 24
-49 c34 -67 132 -187 197 -242 167 -141 341 -221 564 -259 l100 -17 8 -109 c4
-60 6 -117 5 -127 -2 -13 -31 -27 -108 -53 -173 -58 -293 -140 -345 -235 -84
-155 18 -370 200 -421 22 -6 96 -14 165 -17 l125 -6 3 -87 3 -88 -29 0 c-76 0
-209 -59 -279 -123 -47 -43 -103 -113 -103 -129 0 -4 203 -8 450 -8 260 0 450
4 450 9 0 20 -82 115 -130 152 -66 50 -129 78 -205 91 -33 6 -64 15 -68 19 -5
4 -6 45 -2 91 l7 85 152 6 c190 8 258 -2 362 -53 132 -64 212 -160 201 -241
-6 -44 -74 -147 -123 -184 -31 -24 -195 -85 -228 -85 -9 0 -16 -4 -16 -10 0
-14 11 -13 115 10 218 48 335 158 335 315 -1 105 -56 189 -175 264 -118 75
-162 84 -402 89 l-213 4 1 76 c0 111 16 372 21 378 6 5 231 45 363 64 162 24
322 60 394 90 247 101 498 370 608 648 56 143 76 262 77 452 1 152 -1 170 -23
225 -69 172 -217 317 -438 429 -119 59 -199 78 -358 82 -92 2 -168 -2 -221
-11z m-550 -2147 c4 -73 9 -168 12 -210 l6 -78 -38 0 c-132 1 -255 40 -305 98
-27 31 -31 41 -26 78 11 101 86 173 227 219 124 40 117 47 124 -107z"/>
</g>
</svg>
